# xmcd CD database file
#
# Track frame offsets:
#	150
#	33478
#	60015
#	81101
#	98695
#	135132
#	171127
#	194437
#	222725
#	251227
#
# Disc length: 3692 seconds
#
# Revision: 0
# Processed by: cddbd v1.5PL3 Copyright (c) Steve Scherf et al.
# Submitted via: CDex 1.51
#
DISCID=820e6a0a
DTITLE=Claus Raible Sextet - Loopin' With Lea
DYEAR=2000
DGENRE=Jazz
TTITLE0=Loopin' With Lea
TTITLE1=Workshop
TTITLE2=Jammin' At Duffield
TTITLE3=Laird Turner Meteor
TTITLE4=Gondwana
TTITLE5=I Didn't Know What Time It Was
TTITLE6=Petite Bel
TTITLE7=Jive Bomber
TTITLE8=If I Love You
TTITLE9=Be Bop In Pastel
EXTD=YEAR: 2000
EXTT0=
EXTT1=
EXTT2=
EXTT3=
EXTT4=
EXTT5=
EXTT6=
EXTT7=
EXTT8=
EXTT9=
PLAYORDER=
